
<svg width="167px" height="192px" viewBox="0 0 167 192" version="1.1" xmlns="http://www.w3.org/2000/svg" xmlns:xlink="http://www.w3.org/1999/xlink">
    <g id="header-brand" fill="#01C2C2">
        <polygon id="path" points="83.1384 0.0003 0.0004 48.0013 27.7124 64.0013 110.8494 16.0023"></polygon>
        <polygon id="path" opacity="0.6" points="0 144.0012 27.712 160.0002 27.712 64.0012 0 48.0012"></polygon>
        <polygon id="path" points="55.4247 80.0013 55.4247 112.0003 166.2767 48.0013 138.5647 32.0023"></polygon>
        <polygon id="path" points="138.5649 128.0005 83.1379 160.0005 55.4249 144.0015 110.8499 111.9995"></polygon>
        <polygon id="path" opacity="0.6" points="110.8505 80.0015 110.8495 111.9995 138.5645 128.0005 138.5625 64.0015"></polygon>
        <polygon id="path" opacity="0.6" points="55.4247 176.0016 83.1387 191.9986 83.1387 160.0006 55.4247 144.0016"></polygon>
        <polygon id="path" opacity="0.35" points="138.5631 64.0011 138.5651 128.0001 83.1381 160.0001 83.1381 191.9991 166.2771 144.0001 166.2771 48.0011"></polygon>
    </g>
</svg>